<?xml version="1.0" encoding="utf-8"?>
<!-- Generator: Adobe Illustrator 23.0.1, SVG Export Plug-In . SVG Version: 6.00 Build 0)  -->
<svg version="1.1" id="Capa_1" xmlns="http://www.w3.org/2000/svg" x="0px" y="0px"
     viewBox="0 0 50 50" style="enable-background:new 0 0 50 50;" xml:space="preserve">
<style type="text/css">
	.st0{fill:#C03A2B;}
	.st1{fill:#ED7161;}
</style>
    <g>
	<g>
		<path class="st0" d="M77.4-1.6c2-4.8,6.6-8.1,12-8.1c7.2,0,12.4,6.2,13.1,13.5c0,0,0.4,1.8-0.4,5.1c-1.1,4.5-3.5,8.5-6.9,11.5
			L77.4,36.3L60,20.5c-3.4-3-5.8-7-6.9-11.5c-0.8-3.3-0.4-5.1-0.4-5.1c0.7-7.4,5.9-13.5,13.1-13.5C71.1-9.7,75.4-6.4,77.4-1.6z"/>
	</g>
        <path class="st1" d="M58.6,6.4c-0.6,0-1-0.4-1-1c0-5.5,4.5-10,10-10c0.6,0,1,0.4,1,1s-0.4,1-1,1c-4.4,0-8,3.6-8,8
		C59.6,5.9,59.1,6.4,58.6,6.4z"/>
</g>
    <path class="st0" d="M-8.2,2.4"/>
</svg>
